<svg width="1000" height="1000" viewBox="0 0 1000 1000" fill="none" xmlns="http://www.w3.org/2000/svg">
<mask id="mask0_1_2" style="mask-type:alpha" maskUnits="userSpaceOnUse" x="153" y="163" width="697" height="669">
<ellipse cx="501.5" cy="497.5" rx="348.5" ry="334.5" fill="#D9D9D9"/>
</mask>
<g mask="url(#mask0_1_2)">
<path d="M1000 0H0V1000H1000V0Z" fill="#00FFEF"/>
<g clip-path="url(#clip0_1_2)">
<g clip-path="url(#clip1_1_2)">
<path d="M524.222 769.591C521.067 765.752 517.91 768.056 517.913 765.752C498.981 770.359 463.487 758.072 448.498 759.607C451.652 755.001 443.766 755.768 443.766 752.697C440.611 757.304 437.454 752.697 432.722 754.233C427.991 742.713 409.058 751.162 406.692 736.569C395.649 736.569 391.706 730.424 380.66 724.282C381.449 723.514 382.237 723.514 383.028 722.746C377.508 721.978 377.508 718.907 372.774 718.907L374.351 715.833C365.673 714.298 362.519 701.243 349.898 696.636C345.955 695.868 337.277 682.813 332.546 679.74C330.18 678.204 326.234 678.204 331.755 677.436C330.966 676.668 330.966 675.133 331.755 674.365C326.234 672.829 325.443 668.22 318.345 665.917C317.557 663.613 319.923 662.078 318.345 660.542C316.768 659.774 314.402 661.31 312.825 660.542C312.036 674.365 327.811 675.901 332.546 687.42C330.968 685.884 328.602 681.275 327.023 684.349C326.234 686.652 333.334 695.1 333.334 690.491C330.968 692.027 330.18 688.188 331.755 687.42C334.121 691.259 338.855 690.491 338.855 693.565C336.489 695.868 333.334 691.261 334.123 695.1C341.223 698.939 340.434 702.781 344.375 708.155C341.221 704.316 340.432 711.227 337.277 708.155C336.489 696.636 323.079 698.939 323.079 687.42C321.502 683.581 319.925 686.652 317.557 685.117C320.711 682.045 308.091 671.294 308.091 675.133C304.147 670.526 306.513 668.988 305.725 665.917C302.57 665.149 304.936 668.988 302.57 666.685C305.725 661.31 298.627 654.397 293.893 649.023L297.049 647.487C291.529 644.416 290.738 638.271 286.795 631.359C282.063 638.271 296.261 653.63 293.893 656.701C293.893 657.469 299.413 663.613 300.993 666.685C307.304 677.436 312.036 690.491 320.713 696.636C319.136 695.868 319.925 691.261 322.291 693.565C322.291 695.868 320.713 698.172 320.713 700.475C325.445 705.082 329.391 708.923 334.123 713.53C323.868 707.385 313.613 701.243 306.513 692.027C310.456 691.259 314.402 698.172 317.557 697.404C309.668 691.259 312.036 688.956 308.881 681.278C305.727 678.974 309.67 684.349 306.513 685.117C296.258 675.901 288.37 670.526 283.638 662.078C284.426 661.31 285.215 660.542 285.217 659.007C284.429 658.239 284.429 658.239 283.638 657.471C288.37 662.078 289.949 665.919 295.47 666.685C293.104 664.381 295.47 663.613 292.315 661.31C290.738 658.239 288.372 662.846 286.795 660.542C288.372 658.239 286.795 655.167 286.795 652.862C285.217 652.862 283.64 652.862 282.849 650.558C281.272 649.791 280.483 650.558 279.695 652.094C278.906 651.326 278.906 649.791 278.117 649.023V648.255C277.329 647.487 276.54 645.952 275.751 645.182C269.44 629.055 265.497 607.552 256.819 593.729C259.185 584.513 255.242 566.084 252.876 561.475C255.242 557.636 253.664 539.972 252.087 536.9C248.144 538.436 252.876 546.884 248.933 549.188C244.989 532.293 251.299 513.094 249.721 497.735C251.299 497.735 252.876 497.735 252.876 496.967C250.51 494.664 254.453 490.055 253.664 484.68C256.819 477.768 246.564 494.664 246.564 501.574C245.776 503.11 242.621 501.574 243.41 505.416C243.41 510.79 244.987 521.542 241.832 529.222C240.255 529.222 240.255 527.687 238.678 528.454C237.889 532.293 237.101 536.902 236.312 540.742C235.523 539.206 234.735 536.903 234.732 536.133C230.789 516.933 234.732 494.662 233.155 478.536C236.31 478.536 236.31 473.929 238.678 472.393C237.889 478.538 236.312 486.216 240.255 487.752C243.41 457.8 249.721 424.78 263.919 392.525C274.174 368.719 289.161 344.912 307.302 325.713C308.879 328.016 306.513 333.393 307.302 335.696C323.077 319.57 333.332 300.37 350.687 289.619C351.475 293.458 343.587 296.531 343.587 299.602C350.687 292.69 353.053 294.996 360.942 292.692C363.307 289.621 357.787 292.692 356.996 289.619C361.728 286.548 364.885 282.706 368.039 280.405C368.039 281.173 367.251 281.173 367.251 281.941C375.928 279.637 376.717 275.028 383.028 273.493C382.24 272.725 380.662 271.957 378.294 272.725C379.871 271.957 382.237 270.421 384.606 269.653C383.817 269.653 383.817 270.421 383.028 270.421C387.76 268.118 383.817 271.189 383.817 272.725C384.606 272.725 385.394 271.957 385.394 271.957C380.662 275.028 377.505 276.564 375.928 281.941C378.294 280.405 379.083 281.941 382.24 279.635C385.394 278.099 381.451 275.796 383.817 274.26C386.183 275.796 389.338 275.028 391.703 275.028C391.703 273.492 392.492 271.957 394.072 271.189C394.86 269.653 394.072 268.886 393.281 268.886C394.069 268.118 394.858 268.118 396.438 267.348C396.438 267.348 397.226 267.348 397.226 268.116C410.636 261.971 425.622 256.596 439.82 251.989C448.498 251.222 459.541 251.222 464.273 245.847C462.696 245.847 461.118 246.615 460.33 245.847C461.118 245.847 462.696 245.079 463.484 245.079C465.062 246.615 467.428 245.079 465.062 248.15C465.85 248.15 465.85 248.15 466.641 247.383C466.641 248.15 466.641 248.15 467.43 248.918C468.219 248.918 469.007 248.15 469.796 246.615C470.585 246.615 471.373 246.615 472.162 245.847L471.373 246.615C477.685 245.079 483.205 245.847 491.883 244.309C491.883 243.541 491.883 242.773 491.883 242.006C493.46 242.006 494.249 241.238 495.826 241.238V242.006C498.981 240.47 502.137 243.541 502.135 242.006C502.924 242.006 502.924 242.006 503.715 242.006C503.715 243.541 502.926 244.309 502.926 245.079C506.869 245.079 509.238 245.079 510.813 242.773C510.024 242.006 509.235 242.006 508.447 242.006C510.024 242.006 511.601 241.238 513.179 240.47C515.545 241.238 516.333 242.006 516.335 245.079C520.279 238.167 532.899 246.615 538.42 245.079C540.786 245.079 539.997 242.008 541.577 240.47C542.365 240.47 543.154 240.47 543.943 240.47C547.886 243.541 553.409 246.615 560.507 247.383C554.195 245.847 561.295 245.079 562.084 244.309C560.507 244.309 560.507 243.541 560.507 242.773C562.873 242.773 565.239 243.541 567.607 243.541C567.607 245.077 568.395 245.845 569.973 245.847C571.55 245.847 571.55 245.079 571.55 243.541C573.916 243.541 575.493 243.541 577.862 244.309C577.073 247.38 581.805 248.148 583.382 250.454C577.071 248.918 569.973 246.615 567.607 250.454C592.848 255.828 620.456 263.509 647.274 276.564C647.274 276.564 647.274 276.564 647.274 277.332H648.065C652.797 279.635 657.531 281.938 662.263 284.244C665.418 285.78 667.784 287.315 670.938 289.619C670.938 290.387 670.938 291.154 672.518 291.154H673.307C676.461 293.458 679.618 294.993 682.77 297.299C685.925 301.906 689.082 308.051 694.602 306.515C706.435 324.179 719.055 331.089 729.31 349.519C730.099 346.448 732.465 356.432 736.41 357.199C730.099 356.432 740.353 361.038 734.044 360.271C739.565 365.645 741.144 367.951 741.931 374.093C740.353 371.022 739.565 370.254 738.776 373.326C737.987 377.933 744.297 372.558 746.665 377.167C741.933 377.167 743.51 380.238 744.297 384.077C746.663 381.774 745.874 379.47 748.242 380.238C751.397 383.309 746.665 384.077 747.453 386.383C749.819 383.312 750.608 384.847 753.763 386.383C749.819 387.151 756.129 392.527 751.397 390.222C754.551 394.061 755.34 396.367 753.763 400.206C750.608 395.599 752.974 392.525 748.242 393.293C757.708 400.973 752.974 418.635 764.017 420.171C756.917 421.707 764.017 424.778 760.074 425.548C764.806 427.083 762.44 433.228 767.961 434.764C767.172 438.603 765.595 440.908 764.806 444.745C767.172 447.817 767.961 453.961 771.906 454.729C769.54 457.033 771.118 463.177 768.752 465.481C771.906 463.945 773.484 463.945 775.849 467.016C771.906 470.087 775.061 473.161 772.695 473.929C779.795 491.593 771.118 527.687 775.061 541.509C770.329 539.206 771.906 546.884 768.752 546.884C774.272 549.187 769.54 553.029 771.906 556.868C760.863 563.012 771.906 579.907 756.92 583.746C758.497 594.497 752.188 599.104 747.453 610.626C746.665 609.858 746.665 609.09 745.876 608.32C745.088 613.695 741.933 614.465 743.508 619.072L740.353 617.536C740.353 625.984 726.944 630.591 723.789 643.646C723.001 647.485 711.169 657.469 708.012 662.846C706.435 665.149 707.223 668.99 705.646 663.613C704.857 664.381 703.28 664.381 702.491 664.381C701.703 669.756 696.971 671.294 695.391 678.204C693.814 678.972 691.448 676.668 689.871 678.972C689.871 680.507 691.448 682.811 690.659 684.349C704.857 683.581 704.857 667.455 715.901 662.078C715.112 664.381 710.38 666.685 713.535 668.22C715.901 668.22 723.001 660.54 719.055 661.31C721.421 662.846 716.689 664.381 715.901 663.613C719.844 660.542 718.267 656.701 721.423 655.933C723.789 657.469 719.057 661.308 723.789 660.542C726.944 653.63 730.89 652.862 735.621 649.023C732.467 652.094 739.565 652.862 736.41 655.933C724.578 658.237 728.521 671.292 716.689 672.829C713.535 675.133 715.901 675.901 715.112 678.204C711.169 675.901 702.491 688.956 705.646 688.188C701.703 692.027 699.334 690.491 696.182 691.259C695.393 694.33 699.337 692.027 697.759 694.332C692.239 692.029 685.139 699.707 680.404 705.084L678.039 702.778C675.673 708.923 669.361 709.691 662.263 714.298C670.152 718.137 683.561 702.011 687.505 704.314C688.293 704.314 694.605 698.169 696.971 695.868C707.225 688.188 719.846 682.045 724.578 673.597C723.789 675.133 719.057 675.133 721.423 672.829C723.789 672.062 726.155 673.597 728.521 673.597C741.142 656.703 756.917 642.878 768.752 622.913C769.54 622.145 770.329 620.609 771.118 619.072C769.54 623.678 767.174 627.52 765.595 632.127C752.974 640.575 748.242 665.149 733.255 668.988C734.044 677.436 726.155 679.74 722.212 689.723C719.846 692.795 718.269 687.42 715.901 691.259C718.267 702.011 696.18 701.243 696.971 711.227C695.393 711.994 693.027 712.762 691.448 714.298H690.659C689.871 715.066 689.871 715.066 689.082 715.833C685.139 718.137 681.982 720.44 678.827 722.746C667.784 728.891 652.797 733.497 640.965 739.64V738.872C637.81 740.408 633.865 739.64 634.654 742.713C632.288 744.249 629.922 745.785 627.556 747.32C626.767 747.32 626.767 747.32 625.978 747.32C625.978 747.32 625.19 746.553 624.401 746.553C622.824 746.553 622.824 746.552 622.033 747.32C611.778 748.088 598.369 752.695 594.426 755.768C590.482 753.465 572.339 757.304 569.184 758.84C570.761 761.143 575.496 758.84 579.439 758.84C577.073 759.608 574.707 760.375 573.916 761.911C573.127 761.911 573.127 761.911 572.339 761.911C571.55 759.607 569.184 761.911 568.395 761.143H569.184C568.395 758.072 566.03 756.536 562.084 757.304C562.084 758.84 562.084 759.607 561.295 761.143C562.873 761.143 567.607 758.84 567.607 761.143C566.818 761.143 566.818 761.911 567.607 761.911C566.03 763.447 563.664 763.447 562.084 764.217C558.929 764.217 554.984 764.217 551.832 764.217C551.043 763.449 550.254 763.449 548.675 762.679C547.886 763.447 546.309 763.447 545.52 764.217C540.788 764.217 535.265 764.984 531.322 765.752C531.322 764.217 531.322 762.681 529.745 762.679C527.379 765.75 522.645 761.911 517.124 763.449C511.603 761.913 520.279 765.752 528.167 767.288C527.379 768.056 526.59 768.823 524.222 769.591ZM413.79 780.343C402.747 770.359 379.871 765.752 375.928 758.072C369.617 757.304 360.153 745.785 352.264 744.249C356.207 744.249 353.053 741.946 352.264 740.41C350.687 741.946 349.109 742.713 347.532 742.713C347.532 736.569 341.221 732.73 335.7 728.891C339.643 731.194 342.8 732.73 347.532 733.497C347.532 731.962 347.532 730.426 349.109 730.426C354.63 735.801 360.942 741.178 368.039 746.553C377.505 755.001 426.411 776.504 435.088 780.343C435.088 780.343 433.511 783.414 434.3 783.414C438.243 785.717 441.4 781.111 442.189 786.485C429.568 788.021 424.836 779.573 413.79 780.343ZM777.427 602.178V602.945C776.638 602.945 777.427 602.178 777.427 602.178ZM458.752 246.615C457.964 247.382 457.175 247.383 457.175 247.383C457.175 246.615 457.964 246.615 458.752 246.615ZM391.703 266.58C392.492 265.812 392.492 265.812 393.283 265.812C392.494 265.812 391.706 266.58 391.703 266.58ZM517.913 241.238C516.335 241.238 515.547 241.238 514.758 240.47C515.547 240.47 516.335 240.47 517.124 240.47H517.913C517.913 240.47 517.913 240.47 517.913 241.238ZM532.111 242.773C531.322 242.006 528.956 241.238 526.59 241.238C526.59 240.47 527.379 239.702 527.379 239.702C528.167 239.702 528.956 239.702 529.745 239.702C529.745 239.702 530.533 239.702 530.533 240.47C530.533 240.47 530.533 240.47 530.533 239.702C531.322 239.702 531.322 239.702 532.111 239.702C532.899 241.238 533.688 242.006 532.111 242.773ZM558.141 245.079C554.198 245.847 551.829 244.311 547.886 242.006C550.252 242.006 553.407 242.773 555.775 243.541C556.563 243.541 557.352 244.309 558.141 245.079ZM838.953 354.128C837.376 354.896 836.587 354.896 835.01 351.825C822.389 325.715 799.514 288.085 766.383 256.598C734.042 224.344 690.659 198.234 651.22 184.409C653.586 185.177 656.74 186.712 655.163 188.25C620.456 175.195 587.325 167.515 555.775 164.443C470.585 151.388 381.451 169.05 312.825 212.057C313.613 213.592 313.613 214.36 311.247 215.896C286.006 231.254 250.51 258.134 222.112 293.46C193.716 328.786 171.629 373.328 162.163 413.261C162.951 410.957 163.74 407.116 165.32 408.652C144.81 487.752 150.333 555.33 178.729 613.697C180.306 612.161 174.786 604.481 179.518 605.249C182.672 613.697 186.618 622.913 191.35 631.359C196.87 643.646 203.182 659.772 211.859 663.613C189.772 621.375 174.786 572.994 173.206 529.99C176.361 536.135 175.572 549.19 180.306 554.564C181.884 525.383 174.786 486.216 185.038 458.57C182.672 473.161 181.095 493.128 182.672 513.094C182.672 527.684 189.772 568.387 194.504 572.226C193.716 571.458 193.716 567.619 194.504 567.619C196.87 572.226 191.35 574.532 195.293 575.3C195.293 573.764 196.082 573.764 196.87 573.762C204.759 590.656 215.014 616.768 222.9 629.823C232.366 646.717 244.987 662.078 259.185 675.901C259.185 676.668 259.974 676.668 259.976 677.436C261.553 681.275 267.076 685.884 268.651 688.956C269.44 690.491 267.862 692.795 268.651 694.332C280.483 715.836 297.836 737.339 319.134 754.233C332.543 769.591 353.841 785.72 379.871 799.543C405.113 812.598 434.298 823.349 461.118 829.492C480.051 834.098 502.924 834.866 517.124 837.94C536.056 841.779 569.184 836.404 585.748 833.331C685.136 818.74 783.736 752.695 833.432 657.471C884.704 561.477 883.127 443.98 838.953 354.128Z" fill="#010C80"/>
<g clip-path="url(#clip2_1_2)">
<g clip-path="url(#clip3_1_2)">
<g clip-path="url(#clip4_1_2)">
<g clip-path="url(#clip5_1_2)">
<g clip-path="url(#clip6_1_2)">
<g clip-path="url(#clip7_1_2)">
<g clip-path="url(#clip8_1_2)">
<path d="M367.596 471.367V452.221L367.941 415.945C367.941 398.926 367.251 385.603 365.871 375.974C365.181 370.375 362.145 366.009 356.763 362.874C351.335 359.739 346.619 358.171 342.617 358.171C338.569 358.171 335.924 357.432 334.682 355.954C333.394 354.521 332.75 353.357 332.75 352.461C332.75 349.998 335.97 348.766 342.41 348.766L381.396 350.11L411.757 349.438C416.817 349.438 419.347 351.006 419.347 354.141C419.347 357.947 415.322 359.851 407.272 359.851C402.672 359.851 399.337 364.441 397.267 373.622C395.197 382.803 394.162 392.208 394.162 401.837V414.265L393.472 445.167C393.472 450.766 394.162 454.349 395.542 455.916C396.922 457.484 400.142 458.267 405.202 458.267L461.784 457.931C461.784 457.931 483.519 458.155 526.99 458.603C529.52 458.603 530.786 443.04 530.786 411.914V393.776C530.786 376.981 527.335 366.681 520.435 362.874C517.675 361.306 514.869 360.299 512.017 359.851C509.119 359.403 506.704 358.776 504.772 357.97C502.794 357.208 501.805 355.708 501.805 353.469C501.805 351.23 506.29 350.11 515.26 350.11L548.726 350.782L575.637 350.11C580.927 350.11 583.572 351.565 583.572 354.476C583.572 357.388 581.962 358.843 578.742 358.843C572.302 358.843 567.403 360.746 564.044 364.553C560.732 368.36 559.076 373.398 559.076 379.668L557.351 511.674V524.102L558.731 555.004C558.731 569.56 568.392 577.845 587.712 579.86C590.472 579.86 591.852 581.092 591.852 583.555C591.852 585.123 590.702 586.13 588.402 586.578C586.102 587.026 581.617 587.25 574.947 587.25L548.381 585.571L515.95 587.25H510.085C506.865 587.25 504.979 586.802 504.427 585.906C503.829 585.011 503.53 583.936 503.53 582.682C503.53 581.473 504.68 580.308 506.98 579.189C509.28 578.069 511.81 577.173 514.57 576.501C517.33 575.83 519.975 574.486 522.505 572.471C527.335 569.112 529.75 558.587 529.75 540.897L530.786 481.444C530.786 478.085 529.405 475.734 526.645 474.39C523.885 473.047 519.4 472.375 513.19 472.375C506.98 472.375 497.665 472.599 485.244 473.047L466.614 473.382L403.132 472.375C399.682 472.375 397.382 473.047 396.232 474.39C395.082 475.734 394.507 479.205 394.507 484.803L393.127 526.118V540.561C393.127 550.19 394.047 557.356 395.887 562.058C397.727 566.761 402.212 571.351 409.342 575.83C411.182 576.949 414.517 577.509 419.347 577.509C426.938 577.509 430.733 578.741 430.733 581.204C430.733 585.235 427.053 587.25 419.692 587.25L391.057 585.906L353.796 587.586C342.985 587.586 337.58 585.906 337.58 582.548C337.58 579.413 341.145 577.397 348.275 576.501C351.036 576.278 353.911 574.867 356.901 572.269C359.891 569.716 361.846 566.246 362.766 561.857C363.686 557.512 364.721 545.711 365.871 526.453C367.021 507.196 367.596 488.834 367.596 471.367ZM669.134 401.501L668.789 538.21L668.444 564.073C668.444 589.601 661.36 610.606 647.192 627.087C633.069 643.523 616.348 651.741 597.027 651.741C587.827 651.741 583.227 647.487 583.227 638.977C583.227 635.619 584.538 631.7 587.16 627.221C589.828 622.743 591.967 620.503 593.577 620.503C595.187 620.503 597.763 622.407 601.305 626.214C604.894 630.02 609.103 631.924 613.933 631.924C626.583 631.924 634.518 623.191 637.739 605.724C640.729 590.497 642.224 579.301 642.224 572.135V532.5L641.879 523.766C641.879 519.288 641.81 515.369 641.672 512.01C641.58 508.651 641.534 505.068 641.534 501.262C641.074 489.841 640.844 468.053 640.844 435.897C640.844 403.786 640.43 384.416 639.602 377.787C638.82 371.204 635.714 366.569 630.286 363.881C624.904 361.194 619.453 359.739 613.933 359.515C608.413 359.291 605.653 357.276 605.653 353.469C605.653 349.662 608.988 347.759 615.658 347.759C617.958 347.759 623.179 348.095 631.321 348.766C639.51 349.438 647.284 349.774 654.644 349.774C654.644 349.774 663.959 349.662 682.59 349.438C689.03 349.438 692.25 350.894 692.25 353.805C692.25 355.82 686.96 358.955 676.38 363.21C671.549 365.001 669.134 372.615 669.134 386.05V401.501Z" fill="#010C80"/>
</g>
</g>
</g>
</g>
</g>
</g>
</g>
</g>
</g>
</g>
<defs>
<clipPath id="clip0_1_2">
<rect width="719" height="787.5" fill="white" transform="translate(153 106)"/>
</clipPath>
<clipPath id="clip1_1_2">
<rect width="719" height="787.5" fill="white" transform="translate(153 106)"/>
</clipPath>
<clipPath id="clip2_1_2">
<rect width="359.5" height="303.983" fill="white" transform="translate(332.75 347.759)"/>
</clipPath>
<clipPath id="clip3_1_2">
<rect width="359.5" height="303.983" fill="white" transform="translate(332.75 347.759)"/>
</clipPath>
<clipPath id="clip4_1_2">
<rect width="359.5" height="303.983" fill="white" transform="translate(332.75 347.759)"/>
</clipPath>
<clipPath id="clip5_1_2">
<rect width="359.5" height="303.983" fill="white" transform="translate(332.75 347.759)"/>
</clipPath>
<clipPath id="clip6_1_2">
<rect width="359.5" height="303.983" fill="white" transform="translate(332.75 347.759)"/>
</clipPath>
<clipPath id="clip7_1_2">
<rect width="359.5" height="303.983" fill="white" transform="translate(332.75 347.759)"/>
</clipPath>
<clipPath id="clip8_1_2">
<rect width="359.5" height="303.983" fill="white" transform="translate(332.75 347.759)"/>
</clipPath>
</defs>
</svg>
